<svg width="360" height="120" viewBox="0 0 360 120" fill="none" xmlns="http://www.w3.org/2000/svg">
  <defs>
    <linearGradient id="haloLight" x1="10" y1="8" x2="118" y2="116" gradientUnits="userSpaceOnUse">
      <stop stop-color="#0B2C7A"/>
      <stop offset="1" stop-color="#0F4CBF"/>
    </linearGradient>
    <linearGradient id="accentLight" x1="30" y1="46" x2="94" y2="82" gradientUnits="userSpaceOnUse">
      <stop stop-color="#E8C55C"/>
      <stop offset="1" stop-color="#FEEFD1"/>
    </linearGradient>
  </defs>
  <rect x="8" y="8" width="104" height="104" rx="22" fill="url(#haloLight)" stroke="#7EA5FF" stroke-width="4"/>
  <circle cx="60" cy="60" r="34" fill="#0F4CBF" stroke="#FEEFD1" stroke-width="4"/>
  <path d="M60 32C49.506 32 40.5 41.006 40.5 51.5C40.5 58.551 44.37 64.769 50.125 68.19C50.041 69.04 50 69.91 50 70.8C50 77.54 52.166 83.282 55.56 86.947C46.713 83.963 40 74.129 40 62.8C40 48.879 48.954 36 60 36C65.211 36 69.955 38.365 73.468 42.164C69.884 36.099 65.138 32 60 32Z" fill="#FEEFD1" fill-opacity="0.4"/>
  <path d="M54 50H66C68.2091 50 70 51.7909 70 54V66C70 68.2091 68.2091 70 66 70H54C51.7909 70 50 68.2091 50 66V54C50 51.7909 51.7909 50 54 50Z" fill="url(#accentLight)"/>
  <path d="M65 48V44C65 41.7909 63.2091 40 61 40H59C56.7909 40 55 41.7909 55 44V48" stroke="#FFFFFF" stroke-width="4" stroke-linecap="round"/>
  <path d="M73 64H80" stroke="#FFFFFF" stroke-width="4" stroke-linecap="round"/>
  <path d="M40 64H47" stroke="#FFFFFF" stroke-width="4" stroke-linecap="round"/>
  <path d="M60 80V87" stroke="#FFFFFF" stroke-width="4" stroke-linecap="round"/>
  <path d="M60 33V40" stroke="#FFFFFF" stroke-width="4" stroke-linecap="round"/>
  <text x="128" y="62" fill="#FFFFFF" font-family="'Fraunces', 'Times New Roman', serif" font-size="30" font-weight="800">Casino Filipino</text>
  <text x="128" y="90" fill="#E8C55C" font-family="'Inter', Arial, sans-serif" font-size="18" font-weight="600">Online</text>
  <rect x="126" y="70" width="62" height="4" rx="2" fill="#E8C55C"/>
</svg>
